<?xml version="1.0" encoding="UTF-8"?>
<svg xmlns="http://www.w3.org/2000/svg" version="1.1" width="400" height="400" viewBox="0 0 400 400"><rect x="0" y="0" width="400" height="400" fill="#fefefe"/><g transform="scale(12.903)"><g transform="translate(1,1)"><path fill-rule="evenodd" d="M12 0L12 1L14 1L14 3L12 3L12 2L11 2L11 1L10 1L10 2L11 2L11 3L8 3L8 4L9 4L9 5L8 5L8 7L9 7L9 8L6 8L6 9L5 9L5 8L0 8L0 9L1 9L1 10L0 10L0 11L1 11L1 14L0 14L0 21L1 21L1 18L2 18L2 16L3 16L3 15L5 15L5 17L7 17L7 18L5 18L5 20L2 20L2 21L5 21L5 20L6 20L6 21L7 21L7 20L6 20L6 19L7 19L7 18L8 18L8 15L10 15L10 16L9 16L9 17L10 17L10 18L9 18L9 20L8 20L8 23L9 23L9 24L8 24L8 29L9 29L9 28L10 28L10 29L11 29L11 27L9 27L9 25L10 25L10 26L12 26L12 25L10 25L10 24L13 24L13 25L14 25L14 26L13 26L13 27L14 27L14 28L12 28L12 29L15 29L15 28L17 28L17 29L20 29L20 28L22 28L22 29L25 29L25 28L26 28L26 29L27 29L27 28L28 28L28 26L29 26L29 25L28 25L28 24L29 24L29 23L27 23L27 22L29 22L29 20L28 20L28 19L27 19L27 16L28 16L28 15L27 15L27 14L25 14L25 13L27 13L27 12L28 12L28 11L27 11L27 12L26 12L26 11L25 11L25 9L26 9L26 8L25 8L25 9L24 9L24 8L23 8L23 9L22 9L22 8L21 8L21 9L20 9L20 8L19 8L19 9L18 9L18 8L17 8L17 6L16 6L16 5L15 5L15 6L14 6L14 5L13 5L13 6L12 6L12 7L13 7L13 6L14 6L14 8L11 8L11 6L10 6L10 4L11 4L11 5L12 5L12 4L18 4L18 5L20 5L20 7L21 7L21 4L18 4L18 3L19 3L19 2L18 2L18 3L15 3L15 2L16 2L16 1L14 1L14 0ZM18 0L18 1L21 1L21 0ZM8 1L8 2L9 2L9 1ZM20 2L20 3L21 3L21 2ZM9 6L9 7L10 7L10 6ZM15 6L15 7L16 7L16 6ZM18 6L18 7L19 7L19 6ZM10 8L10 9L9 9L9 12L11 12L11 13L9 13L9 14L10 14L10 15L11 15L11 17L12 17L12 18L11 18L11 20L9 20L9 23L10 23L10 21L11 21L11 20L15 20L15 18L17 18L17 19L16 19L16 21L14 21L14 22L16 22L16 21L17 21L17 24L15 24L15 26L14 26L14 27L15 27L15 26L16 26L16 25L17 25L17 24L18 24L18 25L20 25L20 24L19 24L19 22L20 22L20 21L19 21L19 20L20 20L20 18L21 18L21 19L22 19L22 18L21 18L21 16L20 16L20 18L19 18L19 19L18 19L18 17L19 17L19 16L18 16L18 15L17 15L17 16L16 16L16 15L15 15L15 18L14 18L14 17L12 17L12 16L14 16L14 14L16 14L16 13L17 13L17 14L19 14L19 15L20 15L20 14L19 14L19 12L20 12L20 13L25 13L25 11L24 11L24 10L22 10L22 9L21 9L21 10L19 10L19 12L18 12L18 11L17 11L17 12L15 12L15 13L14 13L14 14L13 14L13 13L12 13L12 12L14 12L14 11L13 11L13 9L12 9L12 10L11 10L11 11L10 11L10 9L11 9L11 8ZM16 8L16 9L14 9L14 10L16 10L16 9L17 9L17 10L18 10L18 9L17 9L17 8ZM27 8L27 9L28 9L28 10L29 10L29 9L28 9L28 8ZM2 9L2 11L3 11L3 12L2 12L2 13L4 13L4 14L5 14L5 15L6 15L6 16L7 16L7 15L8 15L8 11L6 11L6 12L7 12L7 13L5 13L5 12L4 12L4 11L5 11L5 9L4 9L4 10L3 10L3 9ZM6 9L6 10L7 10L7 9ZM17 12L17 13L18 13L18 12ZM11 13L11 14L12 14L12 15L13 15L13 14L12 14L12 13ZM28 13L28 14L29 14L29 13ZM2 14L2 15L1 15L1 16L2 16L2 15L3 15L3 14ZM6 14L6 15L7 15L7 14ZM22 14L22 15L24 15L24 14ZM25 15L25 16L24 16L24 17L25 17L25 19L23 19L23 20L25 20L25 21L26 21L26 20L27 20L27 19L26 19L26 17L25 17L25 16L27 16L27 15ZM17 16L17 17L18 17L18 16ZM22 16L22 17L23 17L23 16ZM3 17L3 19L4 19L4 17ZM28 17L28 18L29 18L29 17ZM17 20L17 21L18 21L18 20ZM21 21L21 24L24 24L24 21ZM11 22L11 23L12 23L12 22ZM22 22L22 23L23 23L23 22ZM13 23L13 24L14 24L14 23ZM25 23L25 25L21 25L21 26L25 26L25 25L26 25L26 24L27 24L27 23ZM27 25L27 26L28 26L28 25ZM18 26L18 27L17 27L17 28L18 28L18 27L19 27L19 28L20 28L20 27L19 27L19 26ZM22 27L22 28L23 28L23 27ZM24 27L24 28L25 28L25 27ZM26 27L26 28L27 28L27 27ZM0 0L0 7L7 7L7 0ZM1 1L1 6L6 6L6 1ZM2 2L2 5L5 5L5 2ZM22 0L22 7L29 7L29 0ZM23 1L23 6L28 6L28 1ZM24 2L24 5L27 5L27 2ZM0 22L0 29L7 29L7 22ZM1 23L1 28L6 28L6 23ZM2 24L2 27L5 27L5 24Z" fill="#000000"/></g></g></svg>
